<?xml version="1.0" encoding="UTF-8" standalone="no"?>
<!DOCTYPE svg PUBLIC "-//W3C//DTD SVG 1.1//EN" "http://www.w3.org/Graphics/SVG/1.1/DTD/svg11.dtd">
<svg width="100%" height="100%" viewBox="0 0 37 58" version="1.1" xmlns="http://www.w3.org/2000/svg" xmlns:xlink="http://www.w3.org/1999/xlink" xml:space="preserve" xmlns:serif="http://www.serif.com/" style="fill-rule:evenodd;clip-rule:evenodd;stroke-linecap:round;stroke-linejoin:round;stroke-miterlimit:1.5;">
    <g transform="matrix(1,0,0,1,-489.244,-308.577)">
        <g transform="matrix(1,0,0,1,23.5142,-5.68434e-14)">
            <g transform="matrix(1,0,0,1,-26.6242,0)">
                <path d="M510.608,355.93C510.213,355.93 509.765,355.446 509.389,354.142C509.28,353.763 509.12,352.344 509.12,351.949C509.12,348.997 509.12,344.829 509.12,340.793C509.12,338.317 508.137,335.943 506.386,334.192C506.386,334.192 506.386,334.192 506.385,334.192C505.452,333.258 504.301,332.699 503.152,332.528L503.084,332.472L503.034,332.512C501.651,332.339 500.28,332.729 499.3,333.709C498.546,334.462 498.141,335.447 498.073,336.49L498.063,336.499L498.072,336.507C497.981,337.982 498.562,339.574 499.783,340.795C501.233,342.244 503.206,342.792 504.886,342.382L505.039,342.514L505.039,365.645C505.039,365.645 498.301,358.907 494.68,355.286C493.247,353.853 492.442,351.908 492.442,349.881C492.442,343.727 492.442,330.176 492.442,323.565C492.442,321.147 493.402,318.827 495.112,317.117C496.157,316.073 497.389,314.841 498.585,313.644C501.774,310.455 506.099,308.664 510.609,308.664L510.61,308.664C515.12,308.664 519.445,310.455 522.634,313.644C523.83,314.841 525.062,316.073 526.107,317.117C527.817,318.827 528.777,321.147 528.777,323.565C528.777,330.176 528.777,343.727 528.777,349.881C528.777,351.908 527.972,353.853 526.538,355.286C522.918,358.907 516.18,365.645 516.18,365.645L516.18,342.514L516.333,342.382C518.013,342.792 519.986,342.244 521.436,340.795C522.657,339.574 523.238,337.982 523.147,336.507L523.156,336.499L523.146,336.49C523.078,335.447 522.673,334.462 521.919,333.709C520.939,332.729 519.568,332.339 518.185,332.512L518.135,332.472L518.067,332.528C516.918,332.699 515.767,333.258 514.833,334.192C514.833,334.192 514.833,334.192 514.833,334.192C513.082,335.943 512.099,338.317 512.099,340.793C512.099,344.829 512.099,348.997 512.099,351.949C512.099,352.344 511.939,353.763 511.83,354.142C511.454,355.446 511.006,355.93 510.611,355.93L510.608,355.93Z" style="fill:white;stroke:white;stroke-width:0.17px;"/>
            </g>
        </g>
    </g>
</svg>
