<?xml version="1.0" encoding="UTF-8" standalone="no"?>
<!DOCTYPE svg PUBLIC "-//W3C//DTD SVG 1.1//EN" "http://www.w3.org/Graphics/SVG/1.1/DTD/svg11.dtd">
<svg width="100%" height="100%" viewBox="0 0 40 49" version="1.1" xmlns="http://www.w3.org/2000/svg" xmlns:xlink="http://www.w3.org/1999/xlink" xml:space="preserve" xmlns:serif="http://www.serif.com/" style="fill-rule:evenodd;clip-rule:evenodd;stroke-linejoin:round;stroke-miterlimit:2;">
    <g transform="matrix(1,0,0,1,-746.742,-316.743)">
        <g transform="matrix(1,0,0,1,-29.7343,-5.68434e-14)">
            <g transform="matrix(1.25636,0,0,1.25636,-170.615,-87.1259)">
                <g transform="matrix(1,0,0,1,39.2742,28.9653)">
                    <path d="M745.668,305.282C745.668,305.282 735.307,313.097 731.499,315.97C730.681,316.588 729.552,316.588 728.733,315.97C724.925,313.097 714.565,305.282 714.565,305.282L714.565,327.924C714.565,329.641 715.958,331.035 717.675,331.035L742.558,331.035C744.274,331.035 745.668,329.641 745.668,327.924L745.668,305.282Z" style="fill:white;"/>
                </g>
                <g transform="matrix(1,0,0,1,39.2742,25.5293)">
                    <path d="M714.565,295.931L745.668,295.931L745.668,305.282L733.676,314.328L730.116,316.954L726.557,314.328L714.565,305.282L714.565,295.931Z" style="fill:white;"/>
                    <clipPath id="_clip1">
                        <path d="M714.565,295.931L745.668,295.931L745.668,305.282L733.676,314.328L730.116,316.954L726.557,314.328L714.565,305.282L714.565,295.931Z"/>
                    </clipPath>
                    <g clip-path="url(#_clip1)">
                        <g transform="matrix(1,0,0,2.27516,0,-365.585)">
                            <path d="M745.668,291.699C745.668,291.179 744.706,290.756 743.522,290.756L716.71,290.756C715.526,290.756 714.565,291.179 714.565,291.699L714.565,299.244C714.565,299.764 715.526,300.187 716.71,300.187L743.522,300.187C744.706,300.187 745.668,299.764 745.668,299.244L745.668,291.699Z" style="fill:white;"/>
                        </g>
                    </g>
                </g>
            </g>
        </g>
    </g>
</svg>
